<svg xmlns="http://www.w3.org/2000/svg" viewBox="0 0 128 128">
  <defs>
    <linearGradient id="g" x1="20" y1="18" x2="112" y2="110"><stop stop-color="#e8a33d"/><stop offset=".55" stop-color="#c75b39"/><stop offset="1" stop-color="#7c2d3a"/></linearGradient>
    <pattern id="p" width="32" height="32" patternUnits="userSpaceOnUse"><path d="M16 3c5 7 9 11 13 13-4 2-8 6-13 13C11 22 7 18 3 16 7 14 11 10 16 3Z" fill="none" stroke="#1f7a8c" stroke-width="1.3" opacity=".3"/></pattern>
  </defs>
  <rect width="128" height="128" fill="#f4ead8"/>
  <rect width="128" height="128" fill="url(#p)" opacity=".75"/>
  <path d="M28 78c0-27 17-48 39-48 20 0 33 15 33 33 0 24-21 39-45 34-4 9-11 16-21 21 4-10 5-18 2-25-5-3-8-8-8-15Z" fill="url(#g)"/>
  <path d="M56 51a12 12 0 0 1 24 0v23a12 12 0 0 1-24 0V51Z" fill="#fff8ea"/>
  <path d="M45 68c0 14 9 24 23 24s23-10 23-24M68 92v13M54 105h28" fill="none" stroke="#2a1810" stroke-width="6" stroke-linecap="round"/>
</svg>
