<svg xmlns="http://www.w3.org/2000/svg" viewBox="0 0 128 128" role="img" aria-label="Spanish recall app icon">
  <defs>
    <linearGradient id="sun" x1="18" y1="18" x2="110" y2="110" gradientUnits="userSpaceOnUse">
      <stop stop-color="#e8a33d"/>
      <stop offset=".55" stop-color="#c75b39"/>
      <stop offset="1" stop-color="#7c2d3a"/>
    </linearGradient>
    <pattern id="tile" width="28" height="28" patternUnits="userSpaceOnUse">
      <path d="M14 2c4 6 8 10 12 12-4 2-8 6-12 12C10 20 6 16 2 14 6 12 10 8 14 2Z" fill="none" stroke="#1f7a8c" stroke-width="1.5" opacity=".36"/>
    </pattern>
  </defs>
  <rect width="128" height="128" rx="34" fill="#f4ead8"/>
  <rect x="10" y="10" width="108" height="108" rx="28" fill="url(#tile)" opacity=".65"/>
  <path d="M31 78c0-25 15-44 36-44 18 0 30 13 30 30 0 22-19 36-41 31-3 8-9 15-18 19 3-8 4-15 2-22-6-3-9-8-9-14Z" fill="url(#sun)"/>
  <path d="M57 52a11 11 0 0 1 22 0v22a11 11 0 0 1-22 0V52Z" fill="#fff8ea" opacity=".94"/>
  <path d="M46 69c0 13 9 23 22 23s22-10 22-23M68 92v13M54 105h28" fill="none" stroke="#2a1810" stroke-width="6" stroke-linecap="round"/>
  <circle cx="94" cy="35" r="9" fill="#1f7a8c"/>
</svg>
